<svg xmlns="http://www.w3.org/2000/svg" width="1200" height="630" viewBox="0 0 1200 630">
  <defs>
    <linearGradient id="bg" x1="0" y1="0" x2="1" y2="1">
      <stop offset="0" stop-color="#0b0f14"/>
      <stop offset="1" stop-color="#070a0d"/>
    </linearGradient>
    <radialGradient id="glowR" cx="20%" cy="10%" r="60%">
      <stop offset="0" stop-color="#4aa864" stop-opacity="0.55"/>
      <stop offset="1" stop-color="#4aa864" stop-opacity="0"/>
    </radialGradient>
    <radialGradient id="glowD" cx="90%" cy="20%" r="60%">
      <stop offset="0" stop-color="#e3736b" stop-opacity="0.45"/>
      <stop offset="1" stop-color="#e3736b" stop-opacity="0"/>
    </radialGradient>
    <pattern id="grid" width="60" height="60" patternUnits="userSpaceOnUse">
      <path d="M60 0H0V60" fill="none" stroke="rgba(255,255,255,0.06)" stroke-width="1"/>
    </pattern>
  </defs>

  <rect width="1200" height="630" fill="url(#bg)"/>
  <rect width="1200" height="630" fill="url(#glowR)"/>
  <rect width="1200" height="630" fill="url(#glowD)"/>
  <rect width="1200" height="630" fill="url(#grid)"/>

  <g transform="translate(80,90)">
    <text x="0" y="0" fill="#ffffff" font-family="ui-sans-serif,system-ui" font-size="52" font-weight="800">
      PRD Lab
    </text>
    <text x="0" y="58" fill="rgba(255,255,255,0.74)" font-family="ui-sans-serif,system-ui" font-size="26" font-weight="600">
      Pseudo-Random Distribution Explorer
    </text>
    <text x="0" y="98" fill="rgba(255,255,255,0.62)" font-family="ui-sans-serif,system-ui" font-size="20">
      Radiant/Dire themes • Dota2 PRD calculator • PRD playground
    </text>
  </g>

  <!-- stylized bars -->
  <g transform="translate(80,210)">
    <rect x="0" y="240" width="28" height="120" rx="10" fill="#b34a43"/>
    <rect x="44" y="215" width="28" height="145" rx="10" fill="#c95a54"/>
    <rect x="88" y="185" width="28" height="175" rx="10" fill="#df6c64"/>
    <rect x="132" y="150" width="28" height="210" rx="10" fill="#e3736b"/>
    <rect x="176" y="115" width="28" height="245" rx="10" fill="#4aa864"/>
    <rect x="220" y="80" width="28" height="280" rx="10" fill="#3f995a"/>
    <rect x="264" y="45" width="28" height="315" rx="10" fill="#2f7c46"/>

    <text x="0" y="400" fill="rgba(255,255,255,0.60)" font-family="ui-monospace,SFMono-Regular" font-size="18">
      P(N)=min(1, C×N)
    </text>
  </g>

  <g transform="translate(80,560)">
    <text x="0" y="0" fill="rgba(255,255,255,0.55)" font-family="ui-sans-serif,system-ui" font-size="16">
      © 2024–2026 NISHANTH MURTHY KOTTAPALLI
    </text>
  </g>
</svg>
